<svg width="376" height="64" viewBox="0 0 376 64" fill="none" xmlns="http://www.w3.org/2000/svg">
<rect y="27" width="376" height="6" fill="#E6E6E6"/>
<rect y="27" width="207" height="6" fill="#6FD2B8"/>
<path d="M220.07 62.2266V58.0547H218.664V48.7266H216.305V58.0547H211.344V48.7266H208.984V60H217.938V62.2266H220.07ZM226.781 57.4375C226.578 58.0781 225.938 58.4922 225.094 58.4922C223.938 58.4922 223.172 57.6719 223.172 56.4766V56.3359H228.945V55.6406C228.945 53.0938 227.406 51.4453 224.977 51.4453C222.5 51.4453 220.93 53.1797 220.93 55.8516C220.93 58.5312 222.477 60.1797 225.055 60.1797C227.125 60.1797 228.625 59.0781 228.875 57.4375H226.781ZM225 53.1328C226.016 53.1328 226.711 53.8672 226.75 54.9375H223.203C223.273 53.8906 224 53.1328 225 53.1328ZM233.039 55.9844L233.203 53.3438H235.312V60H237.594V51.625H231.242L231.008 55.8359C230.938 57.1562 230.695 58.125 229.898 58.125C229.672 58.125 229.5 58.0938 229.406 58.0703V59.9922C229.523 60.0312 229.781 60.0938 230.133 60.0938C232.203 60.0938 232.891 58.4688 233.039 55.9844ZM239.242 60H243.148C245.125 60 246.391 58.8438 246.391 57.0234C246.391 55.2031 245.125 54.0469 243.148 54.0469H241.523V51.625H239.242V60ZM242.773 55.7266C243.594 55.7266 244.133 56.2422 244.133 57.0078C244.133 57.7734 243.602 58.2969 242.773 58.2969H241.523V55.7266H242.773ZM249.07 54.5156C249.766 54.5156 250.328 53.9531 250.328 53.2578C250.328 52.5547 249.766 52 249.07 52C248.367 52 247.812 52.5547 247.812 53.2578C247.812 53.9531 248.367 54.5156 249.07 54.5156ZM249.07 60.0938C249.766 60.0938 250.328 59.5312 250.328 58.8359C250.328 58.1328 249.766 57.5781 249.07 57.5781C248.367 57.5781 247.812 58.1328 247.812 58.8359C247.812 59.5312 248.367 60.0938 249.07 60.0938ZM255.852 60H258.328L263.031 50.625V48.7266H254.969V50.6016H260.703V50.6484L255.852 60ZM268.75 60.25C271.609 60.25 273.344 57.9766 273.344 54.3359C273.344 50.6953 271.594 48.4688 268.75 48.4688C265.906 48.4688 264.148 50.7031 264.148 54.3438C264.148 57.9922 265.891 60.25 268.75 60.25ZM268.75 58.3594C267.359 58.3594 266.547 56.9297 266.547 54.3438C266.547 51.7812 267.375 50.3594 268.75 50.3594C270.133 50.3594 270.945 51.7734 270.945 54.3438C270.945 56.9297 270.141 58.3594 268.75 58.3594ZM282.422 60.25C285.281 60.25 287.016 57.9766 287.016 54.3359C287.016 50.6953 285.266 48.4688 282.422 48.4688C279.578 48.4688 277.82 50.7031 277.82 54.3438C277.82 57.9922 279.562 60.25 282.422 60.25ZM282.422 58.3594C281.031 58.3594 280.219 56.9297 280.219 54.3438C280.219 51.7812 281.047 50.3594 282.422 50.3594C283.805 50.3594 284.617 51.7734 284.617 54.3438C284.617 56.9297 283.812 58.3594 282.422 58.3594ZM292.922 60.25C295.781 60.25 297.516 57.9766 297.516 54.3359C297.516 50.6953 295.766 48.4688 292.922 48.4688C290.078 48.4688 288.32 50.7031 288.32 54.3438C288.32 57.9922 290.062 60.25 292.922 60.25ZM292.922 58.3594C291.531 58.3594 290.719 56.9297 290.719 54.3438C290.719 51.7812 291.547 50.3594 292.922 50.3594C294.305 50.3594 295.117 51.7734 295.117 54.3438C295.117 56.9297 294.312 58.3594 292.922 58.3594ZM303.422 60.25C306.281 60.25 308.016 57.9766 308.016 54.3359C308.016 50.6953 306.266 48.4688 303.422 48.4688C300.578 48.4688 298.82 50.7031 298.82 54.3438C298.82 57.9922 300.562 60.25 303.422 60.25ZM303.422 58.3594C302.031 58.3594 301.219 56.9297 301.219 54.3438C301.219 51.7812 302.047 50.3594 303.422 50.3594C304.805 50.3594 305.617 51.7734 305.617 54.3438C305.617 56.9297 304.812 58.3594 303.422 58.3594ZM317.094 60.25C319.953 60.25 321.688 57.9766 321.688 54.3359C321.688 50.6953 319.938 48.4688 317.094 48.4688C314.25 48.4688 312.492 50.7031 312.492 54.3438C312.492 57.9922 314.234 60.25 317.094 60.25ZM317.094 58.3594C315.703 58.3594 314.891 56.9297 314.891 54.3438C314.891 51.7812 315.719 50.3594 317.094 50.3594C318.477 50.3594 319.289 51.7734 319.289 54.3438C319.289 56.9297 318.484 58.3594 317.094 58.3594ZM327.594 60.25C330.453 60.25 332.188 57.9766 332.188 54.3359C332.188 50.6953 330.438 48.4688 327.594 48.4688C324.75 48.4688 322.992 50.7031 322.992 54.3438C322.992 57.9922 324.734 60.25 327.594 60.25ZM327.594 58.3594C326.203 58.3594 325.391 56.9297 325.391 54.3438C325.391 51.7812 326.219 50.3594 327.594 50.3594C328.977 50.3594 329.789 51.7734 329.789 54.3438C329.789 56.9297 328.984 58.3594 327.594 58.3594ZM338.094 60.25C340.953 60.25 342.688 57.9766 342.688 54.3359C342.688 50.6953 340.938 48.4688 338.094 48.4688C335.25 48.4688 333.492 50.7031 333.492 54.3438C333.492 57.9922 335.234 60.25 338.094 60.25ZM338.094 58.3594C336.703 58.3594 335.891 56.9297 335.891 54.3438C335.891 51.7812 336.719 50.3594 338.094 50.3594C339.477 50.3594 340.289 51.7734 340.289 54.3438C340.289 56.9297 339.484 58.3594 338.094 58.3594ZM354.93 54.7422C354.82 52.8438 353.391 51.4453 351.117 51.4453C348.609 51.4453 347.008 53.1172 347.008 55.8047C347.008 58.5391 348.609 60.1797 351.133 60.1797C353.336 60.1797 354.812 58.9062 354.938 56.9297H352.812C352.664 57.8438 352.07 58.3906 351.156 58.3906C350.031 58.3906 349.32 57.4531 349.32 55.8047C349.32 54.1875 350.023 53.2344 351.148 53.2344C352.094 53.2344 352.68 53.8594 352.805 54.7422H354.93ZM357.109 63.1016C359.25 63.1016 360.297 62.3281 361.016 60.1797L363.898 51.625H361.492L359.711 58.1719H359.672L357.891 51.625H355.383L358.297 60C358.312 60.0391 358.227 60.3672 358.227 60.4062C358.07 61.0703 357.656 61.3359 356.82 61.3359C356.734 61.3359 356.32 61.3281 356.25 61.3125V63.0781C356.32 63.0938 357.031 63.1016 357.109 63.1016ZM367.008 60V54.3984H367.062L369.227 59.5312H370.805L372.977 54.3984H373.031V60H375.172V51.625H372.25L370.062 57.0938H370.008L367.82 51.625H364.867V60H367.008Z" fill="#C0C0C0"/>
<path d="M6.125 60.25C8.71094 60.25 10.4844 58.6328 10.4844 56.25C10.4844 54.1016 8.94531 52.5547 6.79688 52.5547C5.65625 52.5547 4.72656 53.0156 4.25781 53.7734H4.21094L4.48438 50.6016H9.80469V48.7266H2.60938L2.09375 55.3438H4.14844C4.53125 54.6641 5.23438 54.2422 6.14062 54.2422C7.375 54.2422 8.23438 55.0938 8.23438 56.3047C8.23438 57.5312 7.375 58.3828 6.13281 58.3828C5.04688 58.3828 4.21094 57.7422 4.07812 56.7656H1.89844C1.96094 58.8125 3.71094 60.25 6.125 60.25ZM14.5234 55.0391H15.8125C17.1797 55.0391 17.9844 55.6484 17.9766 56.7422C17.9766 57.6953 17.1641 58.3516 15.9844 58.3516C14.7422 58.3516 13.9297 57.7266 13.8516 56.8047H11.6016C11.7031 58.875 13.4375 60.25 15.9844 60.25C18.6016 60.25 20.375 58.8906 20.375 56.8438C20.375 55.2969 19.2812 54.3047 17.6094 54.1484V54.1016C18.9375 53.8281 19.9609 52.8984 19.9609 51.4609C19.9609 49.6562 18.3516 48.4766 15.9688 48.4766C13.6094 48.4766 11.9688 49.7969 11.8516 51.8594H14.0156C14.0859 50.8828 14.8594 50.2891 15.9688 50.2891C17.0938 50.2891 17.7266 50.875 17.7266 51.7969C17.7266 52.7188 16.9609 53.3594 15.7812 53.3594H14.5234V55.0391ZM24.125 54.4375C25.75 54.4375 26.8125 53.2969 26.8125 51.4844C26.8125 49.6562 25.7422 48.5547 24.125 48.5547C22.5 48.5547 21.4297 49.6562 21.4297 51.4922C21.4297 53.3047 22.4922 54.4375 24.125 54.4375ZM25.1016 60L32.7422 48.7266H31.0547L23.4062 60H25.1016ZM24.125 53.1172C23.5 53.1172 23.0781 52.5781 23.0781 51.4922C23.0781 50.3906 23.5 49.8828 24.125 49.8828C24.75 49.8828 25.1641 50.3906 25.1641 51.4922C25.1641 52.5781 24.7422 53.1172 24.125 53.1172ZM32.0312 60.1641C33.6562 60.1641 34.7188 59.0234 34.7188 57.2109C34.7188 55.375 33.6484 54.2734 32.0312 54.2734C30.4062 54.2734 29.3359 55.3828 29.3359 57.2109C29.3359 59.0312 30.3984 60.1641 32.0312 60.1641ZM32.0312 58.8359C31.4062 58.8359 30.9844 58.3047 30.9844 57.2109C30.9844 56.1094 31.4062 55.6016 32.0312 55.6016C32.6562 55.6016 33.0703 56.1172 33.0703 57.2109C33.0703 58.3047 32.6484 58.8359 32.0312 58.8359ZM46.6641 54.7422C46.5547 52.8438 45.125 51.4453 42.8516 51.4453C40.3438 51.4453 38.7422 53.1172 38.7422 55.8047C38.7422 58.5391 40.3438 60.1797 42.8672 60.1797C45.0703 60.1797 46.5469 58.9062 46.6719 56.9297H44.5469C44.3984 57.8438 43.8047 58.3906 42.8906 58.3906C41.7656 58.3906 41.0547 57.4531 41.0547 55.8047C41.0547 54.1875 41.7578 53.2344 42.8828 53.2344C43.8281 53.2344 44.4141 53.8594 44.5391 54.7422H46.6641ZM51.7344 60.1797C54.2656 60.1797 55.8828 58.5625 55.8828 55.8047C55.8828 53.0859 54.25 51.4453 51.7344 51.4453C49.2266 51.4453 47.5859 53.0938 47.5859 55.8047C47.5859 58.5547 49.2031 60.1797 51.7344 60.1797ZM51.7344 58.4375C50.6172 58.4375 49.9062 57.4922 49.9062 55.8125C49.9062 54.1484 50.625 53.1875 51.7344 53.1875C52.8516 53.1875 53.5703 54.1484 53.5703 55.8125C53.5703 57.4922 52.8516 58.4375 51.7344 58.4375ZM61.1719 60.1797C63.7266 60.1797 65.3125 58.5625 65.3125 55.9297C65.3125 53.5 63.8438 51.9609 61.5859 51.9609C60.2188 51.9609 59.2734 52.5391 58.7578 53.5391H58.6953C58.9688 51.4062 59.7109 50.4297 61.7812 50.3672L62.7031 50.3359C63.8516 50.3047 64.6406 50.0938 64.7656 49.9766V48.2109C64.5391 48.3281 63.6172 48.5156 62.5625 48.5547L61.5859 48.5781C58.5312 48.6719 56.9375 50.4922 56.9375 55.2031C56.9375 58.4766 58.4688 60.1797 61.1719 60.1797ZM61.1328 58.3828C59.9609 58.3828 59.2734 57.5234 59.2734 55.9844C59.2734 54.5156 59.9688 53.6562 61.1328 53.6562C62.2891 53.6562 62.9766 54.5156 62.9766 55.9844C62.9766 57.5234 62.2891 58.3828 61.1328 58.3828ZM71.5234 51.4922C70.3125 51.4922 69.3828 52.1016 68.9219 53.0859H68.8828V51.625H66.6328V62.7344H68.9141V58.5938H68.9609C69.3984 59.5391 70.3359 60.1328 71.5547 60.1328C73.6484 60.1328 74.9453 58.5078 74.9453 55.8125C74.9453 53.1094 73.6406 51.4922 71.5234 51.4922ZM70.75 58.2969C69.6328 58.2969 68.9062 57.3281 68.8984 55.8125C68.9062 54.3125 69.6406 53.3203 70.75 53.3203C71.8906 53.3203 72.6094 54.2969 72.6094 55.8125C72.6094 57.3359 71.8984 58.2969 70.75 58.2969ZM78.7188 60.1328C79.7656 60.1328 80.8047 59.6094 81.2734 58.7188H81.3203V60H83.5312V54.2422C83.5312 52.5547 82.125 51.4453 79.9766 51.4453C77.7578 51.4453 76.375 52.5625 76.2891 54.1875H78.375C78.4844 53.5703 79.0234 53.1484 79.875 53.1484C80.7422 53.1484 81.2891 53.6016 81.2891 54.3828V54.9375L79.1797 55.0625C77.0859 55.1875 75.9141 56.0703 75.9141 57.5938C75.9141 59.1016 77.125 60.1328 78.7188 60.1328ZM79.4688 58.4844C78.7031 58.4844 78.1875 58.0938 78.1875 57.4688C78.1875 56.875 78.6719 56.4922 79.5234 56.4297L81.2891 56.3203V56.9297C81.2891 57.8359 80.4688 58.4844 79.4688 58.4844ZM90.6172 60H92.8984V51.625H90.6172V54.8438H87.4141V51.625H85.1328V60H87.4141V56.5703H90.6172V60ZM98.3594 60.1797C100.891 60.1797 102.508 58.5625 102.508 55.8047C102.508 53.0859 100.875 51.4453 98.3594 51.4453C95.8516 51.4453 94.2109 53.0938 94.2109 55.8047C94.2109 58.5547 95.8281 60.1797 98.3594 60.1797ZM98.3594 58.4375C97.2422 58.4375 96.5312 57.4922 96.5312 55.8125C96.5312 54.1484 97.25 53.1875 98.3594 53.1875C99.4766 53.1875 100.195 54.1484 100.195 55.8125C100.195 57.4922 99.4766 58.4375 98.3594 58.4375Z" fill="#2A2A2A"/>
<path d="M3.52344 10.0391H4.8125C6.17969 10.0391 6.98438 10.6484 6.97656 11.7422C6.97656 12.6953 6.16406 13.3516 4.98438 13.3516C3.74219 13.3516 2.92969 12.7266 2.85156 11.8047H0.601562C0.703125 13.875 2.4375 15.25 4.98438 15.25C7.60156 15.25 9.375 13.8906 9.375 11.8438C9.375 10.2969 8.28125 9.30469 6.60938 9.14844V9.10156C7.9375 8.82812 8.96094 7.89844 8.96094 6.46094C8.96094 4.65625 7.35156 3.47656 4.96875 3.47656C2.60938 3.47656 0.96875 4.79688 0.851562 6.85938H3.01562C3.08594 5.88281 3.85938 5.28906 4.96875 5.28906C6.09375 5.28906 6.72656 5.875 6.72656 6.79688C6.72656 7.71875 5.96094 8.35938 4.78125 8.35938H3.52344V10.0391ZM11.4609 15H13.9375L18.6406 5.625V3.72656H10.5781V5.60156H16.3125V5.64844L11.4609 15ZM27.3672 15.25C30.2969 15.25 32.0703 13 32.0703 9.26562C32.0703 5.14844 29.8516 3.46875 27.3672 3.46875C24.8516 3.46875 23.0234 5.13281 23.0234 7.46875C23.0234 9.66406 24.6719 11.1484 26.7656 11.1484C28.2422 11.1484 29.3594 10.4141 29.7656 9.32031H29.8125C29.8281 11.7422 29.0703 13.3828 27.375 13.3828C26.4297 13.3828 25.7344 12.9531 25.4844 12.1484H23.1562C23.4531 13.9766 25.1562 15.25 27.3672 15.25ZM27.375 9.39844C26.1953 9.39844 25.3203 8.55469 25.3203 7.375C25.3203 6.23438 26.2344 5.35156 27.3984 5.35156C28.5547 5.35156 29.4688 6.25 29.4688 7.41406C29.4688 8.57031 28.5625 9.39844 27.375 9.39844ZM37.6953 15.25C40.625 15.25 42.3984 13 42.3984 9.26562C42.3984 5.14844 40.1797 3.46875 37.6953 3.46875C35.1797 3.46875 33.3516 5.13281 33.3516 7.46875C33.3516 9.66406 35 11.1484 37.0938 11.1484C38.5703 11.1484 39.6875 10.4141 40.0938 9.32031H40.1406C40.1562 11.7422 39.3984 13.3828 37.7031 13.3828C36.7578 13.3828 36.0625 12.9531 35.8125 12.1484H33.4844C33.7812 13.9766 35.4844 15.25 37.6953 15.25ZM37.7031 9.39844C36.5234 9.39844 35.6484 8.55469 35.6484 7.375C35.6484 6.23438 36.5625 5.35156 37.7266 5.35156C38.8828 5.35156 39.7969 6.25 39.7969 7.41406C39.7969 8.57031 38.8906 9.39844 37.7031 9.39844ZM48.3125 15.25C51.1719 15.25 52.9062 12.9766 52.9062 9.33594C52.9062 5.69531 51.1562 3.46875 48.3125 3.46875C45.4688 3.46875 43.7109 5.70312 43.7109 9.34375C43.7109 12.9922 45.4531 15.25 48.3125 15.25ZM48.3125 13.3594C46.9219 13.3594 46.1094 11.9297 46.1094 9.34375C46.1094 6.78125 46.9375 5.35938 48.3125 5.35938C49.6953 5.35938 50.5078 6.77344 50.5078 9.34375C50.5078 11.9297 49.7031 13.3594 48.3125 13.3594ZM61.9844 15.25C64.8438 15.25 66.5781 12.9766 66.5781 9.33594C66.5781 5.69531 64.8281 3.46875 61.9844 3.46875C59.1406 3.46875 57.3828 5.70312 57.3828 9.34375C57.3828 12.9922 59.125 15.25 61.9844 15.25ZM61.9844 13.3594C60.5938 13.3594 59.7812 11.9297 59.7812 9.34375C59.7812 6.78125 60.6094 5.35938 61.9844 5.35938C63.3672 5.35938 64.1797 6.77344 64.1797 9.34375C64.1797 11.9297 63.375 13.3594 61.9844 13.3594ZM72.4844 15.25C75.3438 15.25 77.0781 12.9766 77.0781 9.33594C77.0781 5.69531 75.3281 3.46875 72.4844 3.46875C69.6406 3.46875 67.8828 5.70312 67.8828 9.34375C67.8828 12.9922 69.625 15.25 72.4844 15.25ZM72.4844 13.3594C71.0938 13.3594 70.2812 11.9297 70.2812 9.34375C70.2812 6.78125 71.1094 5.35938 72.4844 5.35938C73.8672 5.35938 74.6797 6.77344 74.6797 9.34375C74.6797 11.9297 73.875 13.3594 72.4844 13.3594ZM82.9844 15.25C85.8438 15.25 87.5781 12.9766 87.5781 9.33594C87.5781 5.69531 85.8281 3.46875 82.9844 3.46875C80.1406 3.46875 78.3828 5.70312 78.3828 9.34375C78.3828 12.9922 80.125 15.25 82.9844 15.25ZM82.9844 13.3594C81.5938 13.3594 80.7812 11.9297 80.7812 9.34375C80.7812 6.78125 81.6094 5.35938 82.9844 5.35938C84.3672 5.35938 85.1797 6.77344 85.1797 9.34375C85.1797 11.9297 84.375 13.3594 82.9844 13.3594ZM99.8203 9.74219C99.7109 7.84375 98.2812 6.44531 96.0078 6.44531C93.5 6.44531 91.8984 8.11719 91.8984 10.8047C91.8984 13.5391 93.5 15.1797 96.0234 15.1797C98.2266 15.1797 99.7031 13.9062 99.8281 11.9297H97.7031C97.5547 12.8438 96.9609 13.3906 96.0469 13.3906C94.9219 13.3906 94.2109 12.4531 94.2109 10.8047C94.2109 9.1875 94.9141 8.23438 96.0391 8.23438C96.9844 8.23438 97.5703 8.85938 97.6953 9.74219H99.8203ZM102 18.1016C104.141 18.1016 105.188 17.3281 105.906 15.1797L108.789 6.625H106.383L104.602 13.1719H104.562L102.781 6.625H100.273L103.188 15C103.203 15.0391 103.117 15.3672 103.117 15.4062C102.961 16.0703 102.547 16.3359 101.711 16.3359C101.625 16.3359 101.211 16.3281 101.141 16.3125V18.0781C101.211 18.0938 101.922 18.1016 102 18.1016ZM111.898 15V9.39844H111.953L114.117 14.5312H115.695L117.867 9.39844H117.922V15H120.062V6.625H117.141L114.953 12.0938H114.898L112.711 6.625H109.758V15H111.898Z" fill="#C0C0C0"/>
</svg>
