<svg width="71" height="66" viewBox="0 0 71 66" fill="none" xmlns="http://www.w3.org/2000/svg">
<path d="M55.3878 12.375C55.3878 7.59055 52.2569 0 43.8556 0C40.4038 0 37.5003 1.62731 35.2 4.84399C32.8998 1.62731 29.9961 0 26.5444 0C18.143 0 15.0123 7.59055 15.0123 12.375C15.0123 20.624 21.4503 25.784 30.2455 33.3048C31.5378 34.4098 32.8742 35.5525 34.299 36.7887C34.5575 37.0129 34.8787 37.125 35.2 37.125C35.5214 37.125 35.8426 37.0129 36.1011 36.7887C37.5258 35.5525 38.8622 34.4098 40.1546 33.3048C49.3624 25.4312 55.3878 20.4497 55.3878 12.375ZM35.2 33.9317C34.1013 32.9835 33.0534 32.0874 32.0327 31.2146C22.8309 23.3464 17.7623 19.0121 17.7623 12.375C17.7623 7.87284 20.7077 2.75 26.5444 2.75C29.5904 2.75 32.0271 4.499 33.9936 8.09683C34.2346 8.53793 34.6973 8.81238 35.2 8.81238C35.7027 8.81238 36.1654 8.53793 36.4064 8.09683C38.373 4.499 40.8096 2.75 43.8556 2.75C49.6108 2.75 52.6378 7.7968 52.6378 12.375C52.6378 19.0121 47.5691 23.3464 38.3673 31.2147C37.3467 32.0874 36.2988 32.9835 35.2 33.9317Z" fill="white"/>
<path d="M9.88048 53.9157L16.5 57.2249V64.625C16.5 65.3843 17.1157 66 17.875 66H32.45C33.2093 66 33.825 65.3843 33.825 64.625V46.6744C33.825 42.4617 30.6648 38.9682 26.4846 38.5491L26.3721 38.537C23.9525 38.2944 19.6683 36.6395 17.9766 34.948L14.8886 31.8612C13.8496 30.8223 12.4686 30.25 11 30.25V19.25C11 16.2173 8.5327 13.75 5.5 13.75C2.4673 13.75 0 16.2173 0 19.25V37.928C0 44.6949 3.82223 50.8859 9.88048 53.9157ZM2.75 19.25C2.75 17.7337 3.98365 16.5 5.5 16.5C7.01635 16.5 8.25 17.7337 8.25 19.25V30.9871C6.57305 31.9568 5.5 33.7646 5.5 35.75C5.5 37.2186 6.07228 38.5996 7.11136 39.6385L14.1527 46.6813C14.6895 47.2183 15.5602 47.2183 16.0973 46.6814C16.6342 46.1446 16.6343 45.2739 16.0974 44.7369L9.05603 37.694C8.53614 37.1744 8.25 36.484 8.25 35.75C8.25 34.5862 8.98659 33.544 10.0831 33.1566C10.0833 33.1566 10.0836 33.1565 10.0837 33.1563C10.084 33.1562 10.0844 33.1562 10.0847 33.1561C11.0331 32.8195 12.1582 33.0199 12.9443 33.8062L16.0322 36.8929C19.2203 40.081 26.1856 41.2805 26.1995 41.2844C28.979 41.563 31.0749 43.8802 31.0749 46.6744V63.25H19.2499V56.375C19.2499 55.8542 18.9555 55.378 18.4898 55.1452L11.1103 51.4561C5.95361 48.877 2.75 43.6934 2.75 37.928V19.25Z" fill="white"/>
<path d="M63.1125 51.9751C63.8719 51.9751 64.4875 51.3595 64.4875 50.6001C64.4875 49.8407 63.8719 49.2251 63.1125 49.2251C62.3532 49.2251 61.7375 49.8407 61.7375 50.6001C61.7375 51.3595 62.3532 51.9751 63.1125 51.9751Z" fill="white"/>
<path d="M64.9 13.75C61.8673 13.75 59.4 16.2173 59.4 19.25V30.25C57.9314 30.25 56.5505 30.8223 55.5117 31.8612L52.4231 34.9482C50.7317 36.6396 46.4475 38.2946 44.0172 38.5381L43.9262 38.548C39.7352 38.9682 36.575 42.4618 36.575 46.6744V64.625C36.575 65.3843 37.1907 66 37.95 66H52.525C53.2843 66 53.9 65.3843 53.9 64.625V57.2249L58.4004 54.9751C59.0795 54.6355 59.3549 53.8097 59.0154 53.1304C58.6758 52.4513 57.8498 52.1756 57.1707 52.5154L51.9101 55.1452C51.4444 55.378 51.15 55.8542 51.15 56.375V63.25H39.325V46.6744C39.325 43.8802 41.4209 41.563 44.2111 41.2833L44.3021 41.2734C47.2846 40.9743 52.2229 39.0375 54.3674 36.893L57.4559 33.806C58.2442 33.0175 59.3714 32.8213 60.3152 33.1561C60.3155 33.1562 60.3159 33.1562 60.3162 33.1563C60.3163 33.1563 60.3166 33.1565 60.3167 33.1566C61.4134 33.544 62.15 34.5862 62.15 35.75C62.15 36.484 61.8639 37.1744 61.3441 37.6943L54.3027 44.737C53.7658 45.2739 53.7659 46.1446 54.3029 46.6815C54.8396 47.2185 55.7105 47.2185 56.2474 46.6814L63.2888 39.6388C64.3277 38.5996 64.9 37.2186 64.9 35.75C64.9 33.7646 63.827 31.9568 62.15 30.9871V19.25C62.15 17.7337 63.3837 16.5 64.9 16.5C66.4164 16.5 67.65 17.7337 67.65 19.25V37.928C67.65 40.4437 67.0152 42.9413 65.814 45.1506C65.4511 45.8179 65.6979 46.6526 66.3652 47.0154C67.0322 47.3781 67.8674 47.1316 68.23 46.4641C69.6497 43.8529 70.4 40.9012 70.4 37.928V19.25C70.4 16.2173 67.9327 13.75 64.9 13.75Z" fill="white"/>
</svg>
