<svg width="16" height="15" viewBox="0 0 16 15" fill="none" xmlns="http://www.w3.org/2000/svg">
<path fill-rule="evenodd" clip-rule="evenodd" d="M13.583 13.5938H2.33301C2.07426 13.5938 1.86426 13.3837 1.86426 13.125V6.09375H3.73926C3.49504 6.44531 3.41254 7.10109 3.41254 7.51734C3.41254 10.0275 5.45957 12.0698 7.97535 12.0698C10.4916 12.0698 12.5386 10.0275 12.5386 7.51734C12.5386 7.10109 12.4796 6.45516 12.1768 6.09375H14.0518V13.125C14.0518 13.3837 13.8418 13.5938 13.583 13.5938ZM7.97528 4.63965C9.56856 4.63965 10.86 5.92824 10.86 7.5173C10.86 9.10684 9.56856 10.3954 7.97528 10.3954C6.38247 10.3954 5.09106 9.10684 5.09106 7.5173C5.09106 5.92824 6.38247 4.63965 7.97528 4.63965ZM11.708 1.875H13.1143C13.373 1.875 13.583 2.085 13.583 2.34375V3.75C13.583 4.00875 13.373 4.21875 13.1143 4.21875H11.708C11.4493 4.21875 11.2393 4.00875 11.2393 3.75V2.34375C11.2393 2.085 11.4493 1.875 11.708 1.875ZM13.6749 0H2.24113C1.25629 0 0.458008 0.796406 0.458008 1.77891V13.2211C0.458008 14.2036 1.25629 15 2.24113 15H13.6749C14.6597 15 15.458 14.2036 15.458 13.2211V1.77891C15.458 0.796406 14.6597 0 13.6749 0Z" fill="white"/>
</svg>
