<svg width="38" height="38" viewBox="0 0 38 38" fill="none" xmlns="http://www.w3.org/2000/svg">
<path d="M10.1747 22.0913C10.7319 26.4651 14.4773 29.8572 19 29.8572C23.5227 29.8572 27.2681 26.4651 27.8253 22.0913H10.1747Z" fill="white"/>
<path d="M32.435 5.565C28.8465 1.97637 24.0751 0 19 0C13.9249 0 9.15355 1.97637 5.565 5.565C1.9763 9.15355 0 13.9249 0 19C0 24.0751 1.9763 28.8465 5.565 32.435C9.15355 36.0236 13.9249 38 19 38C24.0751 38 28.8465 36.0236 32.435 32.435C36.0237 28.8465 38 24.0751 38 19C38 13.9249 36.0237 9.15355 32.435 5.565ZM23.1099 13.9825C24.9619 12.1304 27.9754 12.1305 29.8274 13.9825C30.2691 14.4241 30.2691 15.1403 29.8274 15.5819C29.6065 15.8028 29.3171 15.9132 29.0278 15.9132C28.7384 15.9132 28.4489 15.8028 28.2281 15.5819C27.2579 14.6117 25.6795 14.6118 24.7094 15.5819C24.2678 16.0235 23.5517 16.0235 23.11 15.5819C22.6683 15.1403 22.6683 14.4242 23.1099 13.9825ZM8.1726 13.9825C10.0246 12.1305 13.0381 12.1304 14.8901 13.9825C15.3317 14.4241 15.3317 15.1403 14.8901 15.5819C14.6692 15.8028 14.3798 15.9132 14.0904 15.9132C13.8011 15.9132 13.5115 15.8028 13.2908 15.5819C12.3207 14.6119 10.7422 14.6118 9.77209 15.5819C9.33048 16.0235 8.61435 16.0235 8.17267 15.5819C7.73092 15.1403 7.73092 14.4242 8.1726 13.9825ZM19 32.1191C12.8471 32.1191 7.84129 27.1132 7.84129 20.9603C7.84129 20.3358 8.34768 19.8294 8.97223 19.8294H29.0278C29.6523 19.8294 30.1587 20.3358 30.1587 20.9603C30.1587 27.1132 25.1529 32.1191 19 32.1191Z" fill="white"/>
</svg>
