<svg width="175" height="55" viewBox="0 0 175 55" fill="none" xmlns="http://www.w3.org/2000/svg">
<path d="M175 8.92151C175 9.03712 174.904 9.1142 174.807 9.1142H174.383C173.69 9.1142 173.112 9.673 173.112 10.3859C173.112 10.5016 172.572 10.5786 172.456 10.5786C172.341 10.5786 172.264 10.4823 172.264 10.3859C172.264 9.69227 171.705 9.1142 170.992 9.1142H170.587C170.472 9.1142 170.395 9.01785 170.395 8.92151C170.395 8.82517 170.491 8.72882 170.587 8.72882H170.992H172.456H174.383H174.788C174.904 8.72882 175 8.8059 175 8.92151Z" fill="white"/>
<path d="M88.0202 8.28565C88.0202 8.40126 87.9239 8.47833 87.8276 8.47833C85.7851 8.47833 83.3764 10.1547 82.4901 12.2165L74.5706 30.599H77.4416C80.9486 30.599 83.8004 27.7472 83.8004 24.2403C83.8004 24.1247 83.8967 24.0476 83.993 24.0476C84.0894 24.0476 84.1857 24.1439 84.1857 24.2403V30.7917C84.1857 30.9073 84.0894 30.9844 83.993 30.9844H73.9925H72.6244H69.3294H65.4756C65.36 30.9844 65.283 30.8881 65.283 30.7917C65.283 30.6761 65.3793 30.599 65.4756 30.599C67.5374 30.599 69.9268 28.9226 70.8131 26.8609L77.2297 12.0623C78.1931 9.8657 80.7751 8.09296 82.9718 8.09296H87.8083C87.9432 8.09296 88.0202 8.17003 88.0202 8.28565ZM69.1175 14.8371V8.28565C69.1175 8.17003 69.2138 8.09296 69.3102 8.09296H75.8616C75.9772 8.09296 76.0543 8.1893 76.0543 8.28565C76.0543 8.40126 75.9579 8.47833 75.8616 8.47833C72.3546 8.47833 69.5028 11.3301 69.5028 14.8371C69.5028 14.9527 69.4065 15.0298 69.3102 15.0298C69.2138 15.0298 69.1175 14.9527 69.1175 14.8371Z" fill="white"/>
<path d="M98.4062 10.4823L91.296 29.4236C91.1611 29.7705 91.1804 30.0788 91.3345 30.31C91.4694 30.5027 91.7199 30.6183 92.0282 30.6183H92.4329C92.5485 30.6183 92.6255 30.7146 92.6255 30.811C92.6255 30.9073 92.5292 31.0037 92.4329 31.0037H92.0282H90.1013H88.6369H88.2322C88.1166 31.0037 88.0396 30.9073 88.0396 30.811C88.0396 30.7146 88.1359 30.6183 88.2322 30.6183H88.6369C89.3691 30.6183 90.1977 30.021 90.4674 29.2887L97.5776 10.3667C97.6162 10.2704 98.1943 10.2125 98.2906 10.2511C98.4062 10.2511 98.4447 10.3667 98.4062 10.4823Z" fill="white"/>
<path d="M110.122 30.7917C110.122 30.9073 110.025 30.9844 109.929 30.9844H109.524H108.06H103.435H101.971H101.547C101.431 30.9844 101.354 30.8881 101.354 30.7917C101.354 30.6954 101.451 30.599 101.547 30.599H101.952C102.26 30.599 102.51 30.4834 102.665 30.2714C102.838 30.0402 102.857 29.7319 102.742 29.3851L100.95 23.9127H93.1073C92.9916 23.9127 92.9146 23.3732 92.9146 23.2576C92.9146 23.142 93.0109 23.0649 93.1073 23.0649H100.661L97.1345 12.1972C96.46 10.1547 94.2634 8.47833 92.2209 8.47833C92.1053 8.47833 92.0282 8.38199 92.0282 8.28565C92.0282 8.17003 92.1245 8.09296 92.2209 8.09296H96.8454C99.0228 8.09296 101.393 9.86569 102.125 12.0431L107.752 29.2695C107.983 30.0017 108.773 30.599 109.505 30.599H109.91C110.025 30.599 110.122 30.6954 110.122 30.7917Z" fill="white"/>
<path d="M133.745 9.92347L127.252 27.304V27.3233C127.252 27.3233 127.252 27.3233 127.252 27.3425L125.922 30.888C125.884 30.9651 125.807 31.0229 125.729 31.0229C125.729 31.0229 127.001 31.0229 127.464 31.0229H125.19C122.55 31.0229 122.454 29.2502 121.722 27.0728L116.885 12.2165C116.211 10.174 114.014 8.51685 111.971 8.51685C111.856 8.51685 111.779 8.4205 111.779 8.32416C111.779 8.22781 111.875 8.13147 111.971 8.13147H116.596C118.793 8.13147 121.163 9.90421 121.895 12.1009L121.914 12.1201L126.654 26.6874L132.955 9.8464C132.994 9.75005 133.572 9.69225 133.668 9.73078C133.726 9.71152 133.784 9.82713 133.745 9.92347Z" fill="white"/>
<path d="M117.791 30.7917C117.791 30.9073 117.694 30.9844 117.598 30.9844H117.193H115.729H113.802H113.397C113.282 30.9844 113.205 30.888 113.205 30.7917C113.205 30.6953 113.301 30.599 113.397 30.599H113.802C114.496 30.599 115.074 30.0402 115.074 29.3273V9.1142C115.074 8.99858 115.613 8.92151 115.729 8.92151C115.845 8.92151 115.922 9.01785 115.922 9.1142V29.3273C115.922 30.0209 116.48 30.599 117.193 30.599H117.598C117.694 30.599 117.791 30.6953 117.791 30.7917Z" fill="white"/>
<path d="M139.468 30.7917C139.468 30.9073 139.372 30.9844 139.276 30.9844H138.871H137.406H133.129H131.664H131.221C131.106 30.9844 131.028 30.8881 131.028 30.7917C131.028 30.6954 131.125 30.599 131.221 30.599H131.626C132.319 30.599 132.898 30.0402 132.898 29.3273V8.28565C132.898 8.17003 132.994 8.09296 133.09 8.09296H138.832H139.237C139.353 8.09296 139.43 8.1893 139.43 8.28565C139.43 8.38199 139.333 8.47833 139.237 8.47833H138.832C138.139 8.47833 137.561 9.03713 137.561 9.75008V29.3273C137.561 30.0209 138.119 30.599 138.832 30.599H139.237C139.372 30.599 139.468 30.6954 139.468 30.7917Z" fill="white"/>
<path d="M150.49 30.7917C150.49 30.9073 150.394 30.9844 150.297 30.9844H149.893H142.686H142.281C142.166 30.9844 142.089 30.8881 142.089 30.7917C142.089 30.6954 142.185 30.599 142.281 30.599H142.686C143.38 30.599 143.958 30.0402 143.958 29.3273V9.75008C143.958 9.0564 143.399 8.47833 142.686 8.47833H142.281C142.166 8.47833 142.089 8.38199 142.089 8.28565C142.089 8.1893 142.185 8.09296 142.281 8.09296H142.686H144.151H148.428H149.893H150.297C150.413 8.09296 150.49 8.1893 150.49 8.28565C150.49 8.38199 150.394 8.47833 150.297 8.47833H149.893C149.199 8.47833 148.621 9.03713 148.621 9.75008V29.3273C148.621 30.0209 149.18 30.599 149.893 30.599H150.297C150.394 30.599 150.49 30.6954 150.49 30.7917Z" fill="white"/>
<path d="M173.131 9.01787V30.7917C173.131 30.9073 172.591 30.9844 172.476 30.9844H171.454C169.258 30.9844 166.695 29.1924 165.751 27.015L159.334 12.2165C158.448 10.1547 156.039 8.47833 153.997 8.47833C153.881 8.47833 153.804 8.38199 153.804 8.28565C153.804 8.17003 153.901 8.09296 153.997 8.09296H158.833C161.03 8.09296 163.612 9.8657 164.575 12.0623L170.992 26.8609C171.281 27.516 171.724 28.1519 172.283 28.7107V9.01787C172.283 8.90225 172.379 8.82518 172.476 8.82518C172.572 8.82518 173.131 8.90225 173.131 9.01787Z" fill="white"/>
<path d="M160.356 30.7917C160.356 30.9073 160.259 30.9844 160.163 30.9844H159.739H158.275H156.367H155.962C155.847 30.9844 155.77 30.888 155.77 30.7917C155.77 30.6761 155.866 30.599 155.962 30.599H156.367C157.022 30.599 157.562 30.098 157.619 29.4621V9.75006C157.619 9.63445 158.159 9.55737 158.275 9.55737C158.39 9.55737 158.467 9.65372 158.467 9.75006V29.2887C158.467 29.308 158.467 29.3272 158.467 29.3272C158.467 30.0209 159.026 30.599 159.739 30.599H160.144C160.259 30.599 160.356 30.6953 160.356 30.7917Z" fill="white"/>
<path d="M87.3844 40.3106V40.773H85.92V46.2068H85.419V40.773H84.918V40.3106H85.419V38.9617C85.419 38.0561 86.0356 37.6129 87.2688 37.6129H87.6349V38.0754H87.2688C86.3631 38.0754 85.92 38.3644 85.92 38.981V40.3298H87.3844V40.3106Z" fill="white"/>
<path d="M94.88 44.9929C94.88 45.8985 94.2634 46.3417 93.0302 46.3417C91.797 46.3417 91.1804 45.8793 91.1804 44.9929V41.5438C91.1804 40.6381 91.797 40.1949 93.0302 40.1949C94.2634 40.1949 94.88 40.6574 94.88 41.5438V44.9929ZM94.379 41.5438C94.379 40.9464 93.9165 40.6381 93.0302 40.6381C92.1438 40.6381 91.6814 40.9272 91.6814 41.5438V44.9929C91.6814 45.5902 92.1438 45.8985 93.0302 45.8985C93.9165 45.8985 94.379 45.6095 94.379 44.9929V41.5438Z" fill="white"/>
<path d="M102.067 40.3106H102.568V46.2069H102.125L102.067 46.0142C101.663 46.2261 101.123 46.3225 100.468 46.3225C99.5431 46.3225 98.8687 45.8986 98.8687 44.9736V40.3106H99.3696V44.9736C99.3696 45.571 99.8321 45.8793 100.718 45.8793C101.219 45.8793 101.72 45.7829 101.913 45.7251L102.067 45.6673V40.3106Z" fill="white"/>
<path d="M107.231 46.2068H106.75V40.3106H107.174L107.231 40.5032C107.636 40.2913 108.176 40.1949 108.831 40.1949C109.756 40.1949 110.43 40.6189 110.43 41.5438V46.2068H109.929V41.5438C109.929 40.9464 109.467 40.6381 108.58 40.6381C108.079 40.6381 107.578 40.7345 107.386 40.7923L107.231 40.8501V46.2068Z" fill="white"/>
<path d="M117.617 37.6129H118.118V46.2068H117.694L117.637 46.0141C117.232 46.2261 116.692 46.3225 116.037 46.3225C115.112 46.3225 114.438 45.8985 114.438 44.9736V41.5245C114.438 40.5996 115.093 40.1757 116.037 40.1757C116.635 40.1757 117.213 40.2913 117.463 40.3876L117.637 40.4647V37.6129H117.617ZM117.617 45.6673V40.8694C117.29 40.7152 116.846 40.6574 116.268 40.6574C115.363 40.6574 114.92 40.9464 114.92 41.563V45.0122C114.92 45.6095 115.382 45.9178 116.268 45.9178C116.769 45.9178 117.27 45.8215 117.463 45.7637L117.617 45.6673Z" fill="white"/>
<path d="M125.402 40.3105H125.826V46.2068H125.402L125.344 46.0141C124.939 46.2261 124.4 46.3224 123.745 46.3224C122.82 46.3224 122.145 45.8985 122.145 44.9736V41.5245C122.145 40.5996 122.801 40.1757 123.745 40.1757C124.342 40.1757 124.92 40.2913 125.171 40.3876L125.344 40.4647L125.402 40.3105ZM125.344 45.6673V40.8693C125.017 40.7152 124.573 40.6574 123.995 40.6574C123.09 40.6574 122.646 40.9464 122.646 41.563V45.0122C122.646 45.6095 123.109 45.9178 123.995 45.9178C124.496 45.9178 124.997 45.8214 125.19 45.7636L125.344 45.6673Z" fill="white"/>
<path d="M132.165 40.773H130.701V44.858C130.701 45.4553 131.163 45.7636 132.05 45.7636H132.416V46.2261H132.05C130.816 46.2261 130.2 45.7636 130.2 44.8773V40.7923H129.699V40.3298H130.2V39.2315L130.508 39.1159H130.701V40.3491H132.165V40.773Z" fill="white"/>
<path d="M136.212 37.6129H136.693V39.5783H136.212V37.6129ZM136.212 46.2068V40.3106H136.693V46.2068H136.212Z" fill="white"/>
<path d="M144.459 44.9929C144.459 45.8985 143.842 46.3417 142.609 46.3417C141.376 46.3417 140.759 45.8793 140.759 44.9929V41.5438C140.759 40.6381 141.376 40.1949 142.609 40.1949C143.842 40.1949 144.459 40.6574 144.459 41.5438V44.9929ZM143.958 41.5438C143.958 40.9464 143.495 40.6381 142.609 40.6381C141.703 40.6381 141.26 40.9272 141.26 41.5438V44.9929C141.26 45.5902 141.723 45.8985 142.609 45.8985C143.515 45.8985 143.958 45.6095 143.958 44.9929V41.5438Z" fill="white"/>
<path d="M149.006 46.2068H148.525V40.3106H148.948L149.006 40.5032C149.411 40.2913 149.95 40.1949 150.606 40.1949C151.53 40.1949 152.205 40.6189 152.205 41.5438V46.2068H151.704V41.5438C151.704 40.9464 151.241 40.6381 150.355 40.6381C149.854 40.6381 149.353 40.7345 149.16 40.7923L149.006 40.8501V46.2068Z" fill="white"/>
<path d="M26.9186 28.017C27.5252 28.017 28.017 27.5253 28.017 26.9187C28.017 26.3121 27.5252 25.8203 26.9186 25.8203C26.312 25.8203 25.8203 26.3121 25.8203 26.9187C25.8203 27.5253 26.312 28.017 26.9186 28.017Z" fill="white"/>
<path fill-rule="evenodd" clip-rule="evenodd" d="M24.2017 29.6356C24.4907 29.1153 26.1478 28.306 26.1478 28.306C26.1478 28.306 26.3405 30.1558 26.0515 30.6568C25.7625 31.1578 24.1053 31.9864 24.1053 31.9864C24.1053 31.9864 23.9126 30.1558 24.2017 29.6356Z" fill="white"/>
<path fill-rule="evenodd" clip-rule="evenodd" d="M27.9206 30.6375C27.6123 30.1366 27.7472 28.2867 27.7472 28.2867C27.7472 28.2867 29.4429 29.0382 29.7512 29.5585C30.0595 30.0595 29.9246 31.9093 29.9246 31.9093C29.9246 31.9093 28.2289 31.1385 27.9206 30.6375Z" fill="white"/>
<path fill-rule="evenodd" clip-rule="evenodd" d="M30.6568 27.9014C30.0787 27.9206 28.5372 26.8801 28.5372 26.8801C28.5372 26.8801 30.0402 25.8011 30.6375 25.7818C31.2349 25.7625 32.7571 26.803 32.7571 26.803C32.7571 26.803 31.2541 27.9014 30.6568 27.9014Z" fill="white"/>
<path fill-rule="evenodd" clip-rule="evenodd" d="M29.6548 24.1825C29.3658 24.7027 27.7087 25.512 27.7087 25.512C27.7087 25.512 27.516 23.6622 27.805 23.1612C28.094 22.6602 29.7512 21.8317 29.7512 21.8317C29.7512 21.8317 29.9439 23.6622 29.6548 24.1825Z" fill="white"/>
<path fill-rule="evenodd" clip-rule="evenodd" d="M25.9166 23.1805C26.2249 23.6815 26.0901 25.5313 26.0901 25.5313C26.0901 25.5313 24.3944 24.7798 24.0861 24.2596C23.7778 23.7586 23.9127 21.9088 23.9127 21.9088C23.9127 21.9088 25.6276 22.6795 25.9166 23.1805Z" fill="white"/>
<path fill-rule="evenodd" clip-rule="evenodd" d="M23.1997 25.9166C23.7778 25.8974 25.3193 26.9379 25.3193 26.9379C25.3193 26.9379 23.8163 28.017 23.219 28.0362C22.6217 28.0555 21.0994 27.015 21.0994 27.015C21.0994 27.015 22.6024 25.9166 23.1997 25.9166Z" fill="white"/>
<path d="M3.66109 33.4315V40.6959L9.96201 44.3377L13.6038 50.6386H20.8682L27.1691 54.2804L33.47 50.6386H40.7151L44.357 44.3377L50.6579 40.6959V33.4315L54.2997 27.1306L50.6579 20.8297V13.5653L44.357 9.92348L40.7151 3.64182H33.4508L27.1499 0L20.8489 3.64182H13.5846L9.94274 9.94274L3.64182 13.5846V20.8489L0 27.1499L3.66109 33.4315ZM5.68432 33.7205H11.8504L14.6251 28.9033L19.7506 31.8707V36.6494H13.5846L10.3474 42.2374L5.66505 39.5397V33.7205H5.68432ZM21.7738 23.7778V17.7274L27.1499 20.8297L32.5259 17.7274V23.7778L37.6129 26.7067L32.5259 29.6355V36.0906L27.1499 32.9883L21.7738 36.0906V30.6568L15.8005 27.2077L21.7738 23.7778ZM11.8889 43.644L14.76 38.6726H19.8469L23.0841 44.2606L20.5792 48.6154H14.7792L11.8889 43.644ZM22.5253 49.2513L25.4157 44.2606L21.9858 38.3258L27.1499 35.3391L31.8707 38.0753L28.9033 43.2201L32.2368 49.0008L27.1499 51.9296L22.5253 49.2513ZM39.559 48.6154H34.3564L31.2541 43.2394L33.894 38.6726H39.559L42.4301 43.644L39.559 48.6154ZM43.9523 42.2374L40.7151 36.6494H34.5491V30.8302L39.2314 28.1326L42.4686 33.7205H48.6347V39.5397L43.9523 42.2374ZM51.9489 27.1306L49.3091 31.6973H43.6247L40.7537 26.7259L43.6247 21.7546H48.8273L51.9489 27.1306ZM48.6347 19.7313H42.4686L39.2314 25.3193L34.5491 22.6217V17.2071H40.7151L43.7596 11.9274L48.6154 14.7407V19.7313H48.6347ZM42.2952 10.4245L39.559 15.1839H34.1059L31.2349 10.2125L33.8747 5.64578H39.559L42.2952 10.4245ZM31.8707 5.06772L28.9033 10.2125L32.0634 15.6656L27.1499 18.4981L22.2363 15.6656L25.3964 10.2125L22.429 5.06772L27.1499 2.33154L31.8707 5.06772ZM14.76 5.66505H20.4443L23.0841 10.2318L20.2131 15.2031H14.76L12.0045 10.4245L14.76 5.66505ZM10.5401 11.9274L13.5846 17.2071H19.7506V22.6217L14.6251 25.5891L11.8504 20.7719H5.68432V14.7407L10.5401 11.9274ZM4.87503 22.7758H10.675L13.257 27.2269L10.675 31.678H4.99064L2.3508 27.1113L4.87503 22.7758Z" fill="white"/>
</svg>
