<svg width="38" height="33" viewBox="0 0 38 33" fill="none" xmlns="http://www.w3.org/2000/svg">
<path d="M35.0698 2.91744C34.1413 1.99253 33.0389 1.25882 31.8255 0.758235C30.6121 0.257652 29.3116 0 27.9982 0C26.6848 0 25.3842 0.257652 24.1708 0.758235C22.9574 1.25882 21.855 1.99253 20.9265 2.91744L18.9995 4.83606L17.0725 2.91744C15.197 1.05005 12.6532 0.000967931 10.0009 0.000967951C7.34846 0.00096797 4.80471 1.05005 2.92918 2.91744C1.05366 4.78482 1.97619e-08 7.31754 0 9.95842C-1.97619e-08 12.5993 1.05366 15.132 2.92918 16.9994L4.85617 18.918L18.9995 33L33.1429 18.918L35.0698 16.9994C35.9988 16.0749 36.7357 14.9773 37.2385 13.7692C37.7412 12.561 38 11.2661 38 9.95842C38 8.65071 37.7412 7.3558 37.2385 6.14769C36.7357 4.93957 35.9988 3.84192 35.0698 2.91744Z" fill="white"/>
</svg>
