<svg width="60" height="60" viewBox="0 0 60 60" fill="none" xmlns="http://www.w3.org/2000/svg">
<path d="M29.7445 30.9691C30.4148 30.9691 30.9581 30.4256 30.9581 29.7551C30.9581 29.0846 30.4148 28.541 29.7445 28.541C29.0742 28.541 28.5309 29.0846 28.5309 29.7551C28.5309 30.4256 29.0742 30.9691 29.7445 30.9691Z" fill="#DBDBDB"/>
<path fill-rule="evenodd" clip-rule="evenodd" d="M26.7423 32.7582C27.0617 32.1831 28.8928 31.2886 28.8928 31.2886C28.8928 31.2886 29.1057 33.3333 28.7863 33.8871C28.467 34.4409 26.6359 35.3567 26.6359 35.3567C26.6359 35.3567 26.423 33.3333 26.7423 32.7582Z" fill="#DBDBDB"/>
<path fill-rule="evenodd" clip-rule="evenodd" d="M30.8516 33.8658C30.511 33.3121 30.66 31.2673 30.66 31.2673C30.66 31.2673 32.5337 32.098 32.8744 32.6731C33.215 33.2269 33.066 35.2716 33.066 35.2716C33.066 35.2716 31.1923 34.4196 30.8516 33.8658Z" fill="#DBDBDB"/>
<path fill-rule="evenodd" clip-rule="evenodd" d="M33.8751 30.8413C33.2364 30.8626 31.533 29.7124 31.533 29.7124C31.533 29.7124 33.1938 28.5196 33.8538 28.4983C34.5139 28.477 36.1959 29.6272 36.1959 29.6272C36.1959 29.6272 34.5351 30.8413 33.8751 30.8413Z" fill="#DBDBDB"/>
<path fill-rule="evenodd" clip-rule="evenodd" d="M32.768 26.7306C32.4486 27.3057 30.6175 28.2002 30.6175 28.2002C30.6175 28.2002 30.4046 26.1555 30.724 25.6017C31.0433 25.0479 32.8744 24.1321 32.8744 24.1321C32.8744 24.1321 33.0873 26.1555 32.768 26.7306Z" fill="#DBDBDB"/>
<path fill-rule="evenodd" clip-rule="evenodd" d="M28.6373 25.623C28.978 26.1768 28.8289 28.2215 28.8289 28.2215C28.8289 28.2215 26.9553 27.3909 26.6146 26.8158C26.2739 26.262 26.423 24.2173 26.423 24.2173C26.423 24.2173 28.3179 25.0693 28.6373 25.623Z" fill="#DBDBDB"/>
<path fill-rule="evenodd" clip-rule="evenodd" d="M25.6352 28.6475C26.274 28.6262 27.9773 29.7764 27.9773 29.7764C27.9773 29.7764 26.3166 30.9691 25.6565 30.9904C24.9965 31.0117 23.3145 29.8616 23.3145 29.8616C23.3145 29.8616 24.9752 28.6475 25.6352 28.6475Z" fill="#DBDBDB"/>
<path d="M4.04542 36.9542V44.984L11.0078 49.0096L15.0319 55.9744H23.0589L30.0213 60L36.9837 55.9744H44.9894L49.0135 49.0096L55.9759 44.984V36.9542L60 29.9893L55.9759 23.0245V14.9947L49.0135 10.9691L44.9894 4.02556H36.9624L30 0L23.0376 4.02556H15.0106L10.9865 10.9904L4.02413 15.016V23.0458L0 30.0106L4.04542 36.9542ZM6.28105 37.2737H13.0944L16.1604 31.9489L21.824 35.229V40.5112H15.0106L11.4336 46.688L6.25976 43.7061V37.2737H6.28105ZM24.0596 26.2833V19.5953L30 23.0245L35.9404 19.5953V26.2833L41.5614 29.5208L35.9404 32.7583V39.8935L30 36.4643L24.0596 39.8935V33.8871L17.4592 30.0745L24.0596 26.2833ZM13.137 48.2428L16.3094 42.7476H21.9304L25.5075 48.9244L22.7395 53.738H16.3307L13.137 48.2428ZM24.89 54.4409L28.0837 48.9244L24.2938 42.3642L30 39.0628L35.2165 42.0873L31.9375 47.7742L35.621 54.164L30 57.4015L24.89 54.4409ZM43.7119 53.738H37.9631L34.5351 47.7955L37.4521 42.7476H43.7119L46.8843 48.2428L43.7119 53.738ZM48.5664 46.688L44.9894 40.5112H38.176V34.0788L43.3499 31.0969L46.9269 37.2737H53.7402V43.7061L48.5664 46.688ZM57.4024 29.9893L54.4855 35.0373H48.2044L45.0319 29.5421L48.2044 24.0469H53.9532L57.4024 29.9893ZM53.7402 21.8104H46.9269L43.3499 27.9872L38.176 25.0053V19.0202H44.9894L48.3534 13.1842L53.719 16.2939V21.8104H53.7402ZM46.7353 11.5229L43.7119 16.7838H37.6863L34.5138 11.2886L37.4308 6.24068H43.7119L46.7353 11.5229ZM35.2165 5.6017L31.9375 11.2886L35.4294 17.3163L30 20.4473L24.5706 17.3163L28.0625 11.2886L24.7835 5.6017L30 2.57721L35.2165 5.6017ZM16.3094 6.26198H22.5905L25.5075 11.3099L22.335 16.8051H16.3094L13.2647 11.5229L16.3094 6.26198ZM11.6466 13.1842L15.0106 19.0202H21.824V25.0053L16.1604 28.2854L13.0944 22.9606H6.28105V16.2939L11.6466 13.1842ZM5.3868 25.1757H11.7956L14.6487 30.0958L11.7956 35.016H5.51455L2.59759 29.968L5.3868 25.1757Z" fill="#DBDBDB"/>
<circle cx="30" cy="30" r="22" fill="#DBDBDB"/>
<path d="M37.612 24.3261C37.1722 23.9057 36.65 23.5722 36.0752 23.3447C35.5005 23.1171 34.8844 23 34.2623 23C33.6401 23 33.0241 23.1171 32.4493 23.3447C31.8746 23.5722 31.3524 23.9057 30.9126 24.3261L29.9998 25.1982L29.087 24.3261C28.1986 23.4773 26.9936 23.0004 25.7372 23.0004C24.4809 23.0004 23.2759 23.4773 22.3875 24.3261C21.4991 25.1749 21 26.3262 21 27.5266C21 28.727 21.4991 29.8782 22.3875 30.727L23.3003 31.5991L29.9998 38L36.6992 31.5991L37.612 30.727C38.0521 30.3068 38.4011 29.8079 38.6393 29.2587C38.8774 28.7096 39 28.121 39 27.5266C39 26.9321 38.8774 26.3435 38.6393 25.7944C38.4011 25.2453 38.0521 24.7463 37.612 24.3261Z" fill="white"/>
</svg>
