<svg width="474" height="156" viewBox="0 0 474 156" fill="none" xmlns="http://www.w3.org/2000/svg">
<path d="M31.9386 132.65V196.023L86.9067 227.794L118.677 282.762H182.05L237.018 314.532L291.986 282.762H355.191L386.962 227.794L441.93 196.023V132.65L473.7 77.6821L441.93 22.714V-40.659L386.962 -72.4295L355.191 -127.229H291.818L236.85 -159L181.882 -127.229H118.509L86.7386 -72.2614L31.7705 -40.4909V22.8821L0 77.8502L31.9386 132.65ZM49.5889 135.172H103.38L127.586 93.1471L172.301 119.034V160.723H118.509L90.2687 209.471L49.4208 185.937V135.172H49.5889ZM189.951 48.433V-4.34976L236.85 22.714L283.75 -4.34976V48.433L328.127 73.9839L283.75 99.5349V155.848L236.85 128.784L189.951 155.848V108.444L137.84 78.3545L189.951 48.433ZM103.716 221.742L128.763 178.373H173.141L201.381 227.121L179.529 265.111H128.931L103.716 221.742ZM196.507 270.659L221.721 227.121L191.8 175.347L236.85 149.292L278.034 173.162L252.147 218.044L281.228 268.473L236.85 294.024L196.507 270.659ZM345.105 265.111H299.719L272.655 218.212L295.685 178.373H345.105L370.152 221.742L345.105 265.111ZM383.432 209.471L355.191 160.723H301.4V109.957L342.248 86.4232L370.488 135.172H424.28V185.937L383.432 209.471ZM453.192 77.6821L430.163 117.521H380.574L355.527 74.152L380.574 30.7827H425.96L453.192 77.6821ZM424.28 13.1324H370.488L342.248 61.8809L301.4 38.3471V-8.88841H355.191L381.751 -54.9473L424.111 -30.405V13.1324H424.28ZM368.975 -68.0589L345.105 -26.5387H297.534L272.487 -69.908L295.516 -109.747H345.105L368.975 -68.0589ZM278.034 -114.79L252.147 -69.908L279.715 -22.3363L236.85 2.37416L193.985 -22.3363L221.553 -69.908L195.666 -114.79L236.85 -138.66L278.034 -114.79ZM128.763 -109.579H178.352L201.381 -69.7399L176.335 -26.3706H128.763L104.725 -68.0589L128.763 -109.579ZM91.9496 -54.9473L118.509 -8.88841H172.301V38.3471L127.586 64.2343L103.38 22.2097H49.5889V-30.405L91.9496 -54.9473ZM42.5288 39.6919H93.1263L115.651 78.5226L93.1263 117.353H43.5374L20.508 77.514L42.5288 39.6919Z" fill="white"/>
</svg>
