<svg width="102" height="90" viewBox="0 0 102 90" fill="none" xmlns="http://www.w3.org/2000/svg">
<path d="M50.833 54.4149C56.1248 54.4149 60.4146 50.1251 60.4146 44.8333C60.4146 39.5415 56.1248 35.2517 50.833 35.2517C45.5413 35.2517 41.2515 39.5415 41.2515 44.8333C41.2515 50.1251 45.5413 54.4149 50.833 54.4149Z" fill="white"/>
<path fill-rule="evenodd" clip-rule="evenodd" d="M27.1308 68.5348C29.6523 63.9962 44.1088 56.936 44.1088 56.936C44.1088 56.936 45.7897 73.0734 43.2683 77.444C40.7468 81.8145 26.2903 89.0428 26.2903 89.0428C26.2903 89.0428 24.6094 73.0735 27.1308 68.5348Z" fill="white"/>
<path fill-rule="evenodd" clip-rule="evenodd" d="M59.5743 77.276C56.8847 72.9055 58.0614 56.7681 58.0614 56.7681C58.0614 56.7681 72.8541 63.3239 75.5436 67.8625C78.2332 72.2331 77.0565 88.3705 77.0565 88.3705C77.0565 88.3705 62.2639 81.6466 59.5743 77.276Z" fill="white"/>
<path fill-rule="evenodd" clip-rule="evenodd" d="M83.4442 53.4062C78.4012 53.5743 64.9534 44.497 64.9534 44.497C64.9534 44.497 78.0651 35.0835 83.2761 34.9154C88.4871 34.7473 101.767 43.8246 101.767 43.8246C101.767 43.8246 88.6552 53.4062 83.4442 53.4062Z" fill="white"/>
<path fill-rule="evenodd" clip-rule="evenodd" d="M74.7031 20.9633C72.1816 25.5019 57.7252 32.562 57.7252 32.562C57.7252 32.562 56.0442 16.4246 58.5657 12.0541C61.0871 7.68353 75.5436 0.455322 75.5436 0.455322C75.5436 0.455322 77.2245 16.4246 74.7031 20.9633Z" fill="white"/>
<path fill-rule="evenodd" clip-rule="evenodd" d="M42.0919 12.2224C44.7814 16.593 43.6047 32.7304 43.6047 32.7304C43.6047 32.7304 28.8121 26.1745 26.1226 21.6359C23.433 17.2653 24.6096 1.12793 24.6096 1.12793C24.6096 1.12793 39.5704 7.85186 42.0919 12.2224Z" fill="white"/>
<path fill-rule="evenodd" clip-rule="evenodd" d="M18.3901 36.0919C23.433 35.9238 36.8809 45.0011 36.8809 45.0011C36.8809 45.0011 23.7692 54.4146 18.5582 54.5827C13.3471 54.7508 0.0673828 45.6735 0.0673828 45.6735C0.0673828 45.6735 13.179 36.0919 18.3901 36.0919Z" fill="white"/>
</svg>
