<svg width="183" height="57" viewBox="0 0 183 57" fill="none" xmlns="http://www.w3.org/2000/svg">
<path d="M183 9.32943C183 9.45033 182.899 9.53092 182.799 9.53092H182.355C181.63 9.53092 181.025 10.1153 181.025 10.8608C181.025 10.9817 180.461 11.0623 180.34 11.0623C180.219 11.0623 180.139 10.9616 180.139 10.8608C180.139 10.1354 179.554 9.53092 178.809 9.53092H178.386C178.265 9.53092 178.184 9.43018 178.184 9.32943C178.184 9.22868 178.285 9.12793 178.386 9.12793H178.809H180.34H182.355H182.778C182.899 9.12793 183 9.20853 183 9.32943Z" fill="white"/>
<path d="M92.044 8.66488C92.044 8.78577 91.9433 8.86637 91.8425 8.86637C89.7067 8.86637 87.1879 10.6194 86.2611 12.7754L77.9795 31.9983H80.9818C84.6491 31.9983 87.6312 29.0161 87.6312 25.3489C87.6312 25.228 87.732 25.1474 87.8327 25.1474C87.9335 25.1474 88.0342 25.2481 88.0342 25.3489V32.1998C88.0342 32.3207 87.9335 32.4013 87.8327 32.4013H77.375H75.9444H72.4988H68.4688C68.3479 32.4013 68.2673 32.3005 68.2673 32.1998C68.2673 32.0789 68.3681 31.9983 68.4688 31.9983C70.6249 31.9983 73.1234 30.2453 74.0503 28.0892L80.7602 12.6142C81.7677 10.3172 84.4677 8.46338 86.7648 8.46338H91.8224C91.9634 8.46338 92.044 8.54398 92.044 8.66488ZM72.2771 15.5158V8.66488C72.2771 8.54398 72.3779 8.46338 72.4786 8.46338H79.3295C79.4504 8.46338 79.531 8.56413 79.531 8.66488C79.531 8.78577 79.4303 8.86637 79.3295 8.86637C75.6623 8.86637 72.6801 11.8485 72.6801 15.5158C72.6801 15.6367 72.5794 15.7173 72.4786 15.7173C72.3779 15.7173 72.2771 15.6367 72.2771 15.5158Z" fill="white"/>
<path d="M102.905 10.9615L95.4695 30.7687C95.3285 31.1313 95.3486 31.4537 95.5098 31.6955C95.6509 31.897 95.9128 32.0179 96.2352 32.0179H96.6584C96.7792 32.0179 96.8598 32.1187 96.8598 32.2194C96.8598 32.3202 96.7591 32.4209 96.6584 32.4209H96.2352H94.2202H92.6889H92.2657C92.1448 32.4209 92.0642 32.3202 92.0642 32.2194C92.0642 32.1187 92.165 32.0179 92.2657 32.0179H92.6889C93.4545 32.0179 94.321 31.3933 94.6031 30.6276L102.038 10.8406C102.079 10.7398 102.683 10.6794 102.784 10.7197C102.905 10.7197 102.945 10.8406 102.905 10.9615Z" fill="white"/>
<path d="M115.156 32.1993C115.156 32.3202 115.055 32.4008 114.954 32.4008H114.531H113H108.164H106.632H106.189C106.068 32.4008 105.988 32.3 105.988 32.1993C105.988 32.0985 106.088 31.9978 106.189 31.9978H106.612C106.935 31.9978 107.197 31.8769 107.358 31.6553C107.539 31.4135 107.559 31.0911 107.438 30.7284L105.564 25.0058H97.3636C97.2427 25.0058 97.1621 24.4416 97.1621 24.3207C97.1621 24.1998 97.2628 24.1192 97.3636 24.1192H105.262L101.575 12.7548C100.87 10.6189 98.5725 8.86589 96.4367 8.86589C96.3158 8.86589 96.2352 8.76514 96.2352 8.66439C96.2352 8.54349 96.3359 8.46289 96.4367 8.46289H101.273C103.55 8.46289 106.028 10.3167 106.794 12.5936L112.677 30.6075C112.919 31.3732 113.745 31.9978 114.511 31.9978H114.934C115.055 31.9978 115.156 32.0985 115.156 32.1993Z" fill="white"/>
<path d="M139.859 10.3773L133.069 28.5524V28.5726C133.069 28.5726 133.069 28.5726 133.069 28.5927L131.679 32.3003C131.638 32.3809 131.558 32.4413 131.477 32.4413C131.477 32.4413 132.807 32.4413 133.291 32.4413H130.913C128.152 32.4413 128.052 30.5875 127.286 28.3106L122.228 12.7752C121.523 10.6393 119.226 8.90641 117.09 8.90641C116.969 8.90641 116.889 8.80566 116.889 8.70492C116.889 8.60417 116.989 8.50342 117.09 8.50342H121.926C124.223 8.50342 126.702 10.3572 127.467 12.6543L127.487 12.6744L132.444 27.9076L139.033 10.2967C139.074 10.196 139.678 10.1355 139.779 10.1758C139.839 10.1557 139.9 10.2766 139.859 10.3773Z" fill="white"/>
<path d="M123.175 32.1996C123.175 32.3204 123.075 32.401 122.974 32.401H122.551H121.019H119.004H118.581C118.46 32.401 118.38 32.3003 118.38 32.1996C118.38 32.0988 118.481 31.9981 118.581 31.9981H119.004C119.73 31.9981 120.334 31.4137 120.334 30.6682V9.53109C120.334 9.41019 120.898 9.32959 121.019 9.32959C121.14 9.32959 121.221 9.43034 121.221 9.53109V30.6682C121.221 31.3936 121.805 31.9981 122.551 31.9981H122.974C123.075 31.9981 123.175 32.0988 123.175 32.1996Z" fill="white"/>
<path d="M145.844 32.1993C145.844 32.3202 145.743 32.4008 145.642 32.4008H145.219H143.688H139.215H137.683H137.22C137.099 32.4008 137.018 32.3 137.018 32.1993C137.018 32.0985 137.119 31.9978 137.22 31.9978H137.643C138.368 31.9978 138.973 31.4135 138.973 30.6679V8.66439C138.973 8.54349 139.074 8.46289 139.174 8.46289H145.179H145.602C145.723 8.46289 145.804 8.56364 145.804 8.66439C145.804 8.76514 145.703 8.86589 145.602 8.86589H145.179C144.454 8.86589 143.849 9.45023 143.849 10.1958V30.6679C143.849 31.3933 144.433 31.9978 145.179 31.9978H145.602C145.743 31.9978 145.844 32.0985 145.844 32.1993Z" fill="white"/>
<path d="M157.37 32.1993C157.37 32.3202 157.269 32.4008 157.168 32.4008H156.745H149.209H148.786C148.665 32.4008 148.584 32.3 148.584 32.1993C148.584 32.0985 148.685 31.9978 148.786 31.9978H149.209C149.934 31.9978 150.539 31.4135 150.539 30.6679V10.1958C150.539 9.47038 149.954 8.86589 149.209 8.86589H148.786C148.665 8.86589 148.584 8.76514 148.584 8.66439C148.584 8.56364 148.685 8.46289 148.786 8.46289H149.209H150.74H155.213H156.745H157.168C157.289 8.46289 157.37 8.56364 157.37 8.66439C157.37 8.76514 157.269 8.86589 157.168 8.86589H156.745C156.019 8.86589 155.415 9.45023 155.415 10.1958V30.6679C155.415 31.3933 155.999 31.9978 156.745 31.9978H157.168C157.269 31.9978 157.37 32.0985 157.37 32.1993Z" fill="white"/>
<path d="M181.045 9.43008V32.1993C181.045 32.3202 180.481 32.4008 180.36 32.4008H179.292C176.995 32.4008 174.315 30.5269 173.328 28.2499L166.618 12.7749C165.691 10.6189 163.173 8.86589 161.037 8.86589C160.916 8.86589 160.835 8.76514 160.835 8.66439C160.835 8.54349 160.936 8.46289 161.037 8.46289H166.094C168.391 8.46289 171.091 10.3167 172.099 12.6137L178.809 28.0888C179.111 28.7738 179.575 29.4388 180.159 30.0231V9.43008C180.159 9.30918 180.26 9.22858 180.36 9.22858C180.461 9.22858 181.045 9.30918 181.045 9.43008Z" fill="white"/>
<path d="M167.686 32.1992C167.686 32.3201 167.585 32.4007 167.485 32.4007H167.041H165.51H163.515H163.092C162.971 32.4007 162.891 32.2999 162.891 32.1992C162.891 32.0783 162.991 31.9977 163.092 31.9977H163.515C164.2 31.9977 164.764 31.4738 164.825 30.8088V10.1956C164.825 10.0747 165.389 9.99414 165.51 9.99414C165.631 9.99414 165.711 10.0949 165.711 10.1956V30.6275C165.711 30.6476 165.711 30.6678 165.711 30.6678C165.711 31.3932 166.296 31.9977 167.041 31.9977H167.464C167.585 31.9977 167.686 32.0984 167.686 32.1992Z" fill="white"/>
<path d="M91.3791 42.154V42.6376H89.8477V48.3198H89.3238V42.6376H88.7999V42.154H89.3238V40.7435C89.3238 39.7965 89.9686 39.333 91.2582 39.333H91.641V39.8166H91.2582C90.3112 39.8166 89.8477 40.1188 89.8477 40.7636V42.1741H91.3791V42.154Z" fill="white"/>
<path d="M99.2173 47.0495C99.2173 47.9965 98.5725 48.46 97.2829 48.46C95.9934 48.46 95.3486 47.9764 95.3486 47.0495V43.4427C95.3486 42.4957 95.9934 42.0322 97.2829 42.0322C98.5725 42.0322 99.2173 42.5158 99.2173 43.4427V47.0495ZM98.6934 43.4427C98.6934 42.8181 98.2098 42.4957 97.2829 42.4957C96.3561 42.4957 95.8725 42.7979 95.8725 43.4427V47.0495C95.8725 47.6741 96.3561 47.9965 97.2829 47.9965C98.2098 47.9965 98.6934 47.6943 98.6934 47.0495V43.4427Z" fill="white"/>
<path d="M106.733 42.1533H107.257V48.3191H106.794L106.733 48.1176C106.31 48.3393 105.746 48.44 105.061 48.44C104.094 48.44 103.388 47.9967 103.388 47.0296V42.1533H103.912V47.0296C103.912 47.6542 104.396 47.9766 105.323 47.9766C105.847 47.9766 106.37 47.8758 106.572 47.8154L106.733 47.7549V42.1533Z" fill="white"/>
<path d="M112.133 48.3189H111.63V42.1531H112.073L112.133 42.3546C112.556 42.133 113.121 42.0322 113.806 42.0322C114.773 42.0322 115.478 42.4755 115.478 43.4427V48.3189H114.954V43.4427C114.954 42.8181 114.471 42.4957 113.544 42.4957C113.02 42.4957 112.496 42.5964 112.295 42.6569L112.133 42.7173V48.3189Z" fill="white"/>
<path d="M122.994 39.3325H123.518V48.3193H123.075L123.014 48.1178C122.591 48.3395 122.027 48.4402 121.342 48.4402C120.375 48.4402 119.669 47.9969 119.669 47.0297V43.4229C119.669 42.4557 120.354 42.0124 121.342 42.0124C121.966 42.0124 122.571 42.1333 122.833 42.2341L123.014 42.3147V39.3325H122.994ZM122.994 47.7551V42.7378C122.651 42.5766 122.188 42.5162 121.584 42.5162C120.636 42.5162 120.173 42.8184 120.173 43.4632V47.07C120.173 47.6947 120.657 48.0171 121.584 48.0171C122.107 48.0171 122.631 47.9163 122.833 47.8559L122.994 47.7551Z" fill="white"/>
<path d="M131.135 42.1533H131.578V48.3191H131.135L131.074 48.1176C130.651 48.3392 130.087 48.44 129.402 48.44C128.434 48.44 127.729 47.9967 127.729 47.0295V43.4227C127.729 42.4555 128.414 42.0122 129.402 42.0122C130.026 42.0122 130.631 42.1331 130.893 42.2339L131.074 42.3145L131.135 42.1533ZM131.074 47.7549V42.7376C130.732 42.5764 130.268 42.516 129.664 42.516C128.717 42.516 128.253 42.8182 128.253 43.463V47.0698C128.253 47.6944 128.737 48.0168 129.664 48.0168C130.188 48.0168 130.711 47.9161 130.913 47.8556L131.074 47.7549Z" fill="white"/>
<path d="M138.207 42.6367H136.676V46.9084C136.676 47.5331 137.159 47.8555 138.086 47.8555H138.469V48.3391H138.086C136.797 48.3391 136.152 47.8555 136.152 46.9286V42.6568H135.628V42.1732H136.152V41.0247L136.474 40.9038H136.676V42.1934H138.207V42.6367Z" fill="white"/>
<path d="M142.439 39.3325H142.942V41.3878H142.439V39.3325ZM142.439 48.3193V42.1535H142.942V48.3193H142.439Z" fill="white"/>
<path d="M151.063 47.0495C151.063 47.9965 150.418 48.46 149.128 48.46C147.839 48.46 147.194 47.9764 147.194 47.0495V43.4427C147.194 42.4957 147.839 42.0322 149.128 42.0322C150.418 42.0322 151.063 42.5158 151.063 43.4427V47.0495ZM150.539 43.4427C150.539 42.8181 150.055 42.4957 149.128 42.4957C148.181 42.4957 147.718 42.7979 147.718 43.4427V47.0495C147.718 47.6741 148.201 47.9965 149.128 47.9965C150.075 47.9965 150.539 47.6943 150.539 47.0495V43.4427Z" fill="white"/>
<path d="M155.818 48.3189H155.314V42.1531H155.758L155.818 42.3546C156.241 42.133 156.805 42.0322 157.49 42.0322C158.458 42.0322 159.163 42.4755 159.163 43.4427V48.3189H158.639V43.4427C158.639 42.8181 158.155 42.4957 157.228 42.4957C156.705 42.4957 156.181 42.5964 155.979 42.6569L155.818 42.7173V48.3189Z" fill="white"/>
<path d="M28.1492 29.2976C28.7835 29.2976 29.2977 28.7833 29.2977 28.149C29.2977 27.5147 28.7835 27.0005 28.1492 27.0005C27.5149 27.0005 27.0007 27.5147 27.0007 28.149C27.0007 28.7833 27.5149 29.2976 28.1492 29.2976Z" fill="white"/>
<path fill-rule="evenodd" clip-rule="evenodd" d="M25.3081 30.9904C25.6103 30.4464 27.3432 29.6001 27.3432 29.6001C27.3432 29.6001 27.5447 31.5345 27.2425 32.0584C26.9402 32.5823 25.2073 33.4487 25.2073 33.4487C25.2073 33.4487 25.0058 31.5345 25.3081 30.9904Z" fill="white"/>
<path fill-rule="evenodd" clip-rule="evenodd" d="M29.197 32.0383C28.8746 31.5145 29.0156 29.5801 29.0156 29.5801C29.0156 29.5801 30.7888 30.3659 31.1112 30.91C31.4336 31.4339 31.2926 33.3682 31.2926 33.3682C31.2926 33.3682 29.5194 32.5622 29.197 32.0383Z" fill="white"/>
<path fill-rule="evenodd" clip-rule="evenodd" d="M32.0583 29.1767C31.4538 29.1969 29.8418 28.1088 29.8418 28.1088C29.8418 28.1088 31.4135 26.9804 32.0381 26.9602C32.6628 26.9401 34.2546 28.0282 34.2546 28.0282C34.2546 28.0282 32.6829 29.1767 32.0583 29.1767Z" fill="white"/>
<path fill-rule="evenodd" clip-rule="evenodd" d="M31.0105 25.2879C30.7082 25.8319 28.9753 26.6782 28.9753 26.6782C28.9753 26.6782 28.7738 24.7438 29.0761 24.2199C29.3783 23.696 31.1112 22.8296 31.1112 22.8296C31.1112 22.8296 31.3127 24.7438 31.0105 25.2879Z" fill="white"/>
<path fill-rule="evenodd" clip-rule="evenodd" d="M27.1014 24.2405C27.4238 24.7644 27.2827 26.6988 27.2827 26.6988C27.2827 26.6988 25.5096 25.913 25.1872 25.3689C24.8648 24.845 25.0058 22.9106 25.0058 22.9106C25.0058 22.9106 26.7991 23.7166 27.1014 24.2405Z" fill="white"/>
<path fill-rule="evenodd" clip-rule="evenodd" d="M24.2603 27.1014C24.8648 27.0812 26.4768 28.1693 26.4768 28.1693C26.4768 28.1693 24.9051 29.2977 24.2804 29.3178C23.6558 29.338 22.064 28.2499 22.064 28.2499C22.064 28.2499 23.6356 27.1014 24.2603 27.1014Z" fill="white"/>
<path d="M3.82845 34.9598V42.5563L10.4174 46.3646L14.2257 52.9535H21.8222L28.4111 56.7618L35.0001 52.9535H42.5764L46.3847 46.3646L52.9737 42.5563V34.9598L56.782 28.3708L52.9737 21.7819V14.1854L46.3847 10.3771L42.5764 3.8083H34.98L28.391 0L21.802 3.8083H14.2056L10.3973 10.3973L3.8083 14.2056V21.802L0 28.391L3.82845 34.9598ZM5.94418 35.2621H12.3921L15.2937 30.2246L20.6535 33.3277V38.3248H14.2056L10.8204 44.1682L5.92403 41.3473V35.2621H5.94418ZM22.7692 24.8648V18.5378L28.391 21.7819L34.0128 18.5378V24.8648L39.3323 27.9275L34.0128 30.9903V37.7405L28.391 34.4964L22.7692 37.7405V32.0582L16.5228 28.4514L22.7692 24.8648ZM12.4324 45.6392L15.4347 40.4405H20.7542L24.1394 46.284L21.5199 50.8378H15.4549L12.4324 45.6392ZM23.5551 51.5028L26.5775 46.284L22.9909 40.0778L28.391 36.9546L33.3277 39.8159L30.2246 45.1959L33.7105 51.2408L28.391 54.3036L23.5551 51.5028ZM41.3674 50.8378H35.927L32.6829 45.216L35.4434 40.4405H41.3674L44.3697 45.6392L41.3674 50.8378ZM45.9616 44.1682L42.5764 38.3248H36.1285V32.2396L41.0249 29.4186L44.41 35.2621H50.858V41.3473L45.9616 44.1682ZM54.3237 28.3708L51.5632 33.1463H45.619L42.6167 27.9477L45.619 22.7491H51.0595L54.3237 28.3708ZM50.858 20.6333H44.41L41.0249 26.4768L36.1285 23.6558V17.9937H42.5764L45.7601 12.4727L50.8378 15.4146V20.6333H50.858ZM44.2287 10.901L41.3674 15.878H35.6651L32.6627 10.6794L35.4233 5.90388H41.3674L44.2287 10.901ZM33.3277 5.29938L30.2246 10.6794L33.5292 16.3817L28.391 19.3438L23.2528 16.3817L26.5574 10.6794L23.4543 5.29938L28.391 2.43812L33.3277 5.29938ZM15.4347 5.92403H21.3789L24.1394 10.6995L21.1371 15.8981H15.4347L12.5533 10.901L15.4347 5.92403ZM11.0219 12.4727L14.2056 17.9937H20.6535V23.6558L15.2937 26.7589L12.3921 21.7214H5.94418V15.4146L11.0219 12.4727ZM5.09789 23.817H11.163L13.863 28.4716L11.163 33.1262H5.21879L2.45827 28.3507L5.09789 23.817Z" fill="white"/>
</svg>
